<?xml version="1.0" encoding="utf-8"?>
<!-- Generator: Adobe Illustrator 16.0.0, SVG Export Plug-In . SVG Version: 6.00 Build 0)  -->
<!DOCTYPE svg PUBLIC "-//W3C//DTD SVG 1.1//EN" "http://www.w3.org/Graphics/SVG/1.1/DTD/svg11.dtd">
<svg version="1.1" id="Layer_1" xmlns="http://www.w3.org/2000/svg" xmlns:xlink="http://www.w3.org/1999/xlink" x="0px" y="0px"
	 width="800px" height="800px" viewBox="0 0 800 800" enable-background="new 0 0 800 800" xml:space="preserve">
<g id="bakcground">
	<rect fill="#93B2BA" stroke="#FFFFFF" stroke-miterlimit="10" width="800" height="800"/>
</g>
<g id="objects">
	<g>
		<g>
			<path fill="#EEEBD5" d="M216.595,260.004c0.73,5.685-3.979,10.649-10.461,11.034l-255.376,15.118
				c-6.484,0.383-12.385-3.954-13.114-9.639l-18.987-147.982c-0.729-5.685,3.978-10.649,10.461-11.034l255.378-15.117
				c6.482-0.384,12.384,3.953,13.112,9.638L216.595,260.004z"/>
			<path fill="#FFFFFF" d="M126.769,268.118c0.097,0.758-0.531,1.42-1.395,1.472l-95.444,5.65c-0.865,0.051-1.651-0.527-1.749-1.285
				l-5.968-46.512c-0.098-0.758,0.53-1.42,1.395-1.471l95.444-5.651c0.864-0.051,1.652,0.528,1.749,1.286L126.769,268.118z"/>
			<path fill="#FFFFFF" d="M196.592,196.622c0.709,5.536-3.871,10.369-10.185,10.743l-232.438,13.76
				c-6.312,0.373-12.057-3.848-12.768-9.384l-8.396-65.433c-0.71-5.534,3.873-10.369,10.185-10.743l232.439-13.76
				c6.312-0.374,12.057,3.85,12.767,9.385L196.592,196.622z"/>
			<path fill="#FFFFFF" d="M223.27,20.267l-0.011,0.004c-0.479-3.238-3.645-5.342-8.42-5.06L-121.798,35.14
				c-4.773,0.284-7.355,2.728-7.005,5.973l-0.007-0.002l0.014,0.113c0.005,0.04,0.01,0.079,0.016,0.12l0.712,5.551l2.381,0.206
				l35.784,51.018c3.475,4.954,11.621,8.693,18.104,8.309l255.548-15.127c6.484-0.384,13.556-5.024,15.715-10.311l22.25-54.453
				l2.298-0.484L223.27,20.267L223.27,20.267z"/>
			<path fill="#0F375C" d="M200.171,86.501c-2.16,5.287-9.232,9.926-15.715,10.311l-255.548,15.127
				c-6.483,0.384-14.63-3.355-18.104-8.309l-37.365-53.274c-3.474-4.953-1.012-9.32,5.471-9.704l336.637-19.928
				c6.483-0.384,10.018,3.627,7.858,8.915L200.171,86.501z"/>
			<polygon fill="#B7E1DD" points="47.801,37.251 47.8,37.251 -112.379,46.733 -72.297,105.413 55.574,97.843 55.575,97.842 
				185.542,90.149 210.076,27.645 			"/>
			<polygon fill="#0F375C" points="-45.218,110.407 160.142,98.25 161.562,109.319 -43.798,121.476 			"/>
			<g>
				<g>
					<path fill="#0F375C" d="M-43.549,146.06c0.098,0.758-0.53,1.419-1.394,1.471l-11.025,0.652
						c-0.864,0.051-1.651-0.527-1.748-1.285l-0.355-2.765c-0.097-0.757,0.531-1.419,1.396-1.471l11.024-0.652
						c0.865-0.052,1.652,0.527,1.749,1.285L-43.549,146.06z"/>
				</g>
				<g>
					<path fill="#0F375C" d="M-26.428,145.046c0.097,0.758-0.531,1.42-1.395,1.471l-11.025,0.652
						c-0.865,0.052-1.651-0.527-1.749-1.285l-0.355-2.765c-0.098-0.758,0.531-1.42,1.395-1.472l11.026-0.651
						c0.864-0.052,1.65,0.526,1.748,1.284L-26.428,145.046z"/>
				</g>
				<g>
					<path fill="#0F375C" d="M-9.308,144.032c0.097,0.759-0.531,1.42-1.395,1.471l-11.025,0.653
						c-0.865,0.051-1.652-0.527-1.749-1.285l-0.355-2.765c-0.097-0.758,0.531-1.42,1.395-1.471l11.025-0.652
						c0.864-0.051,1.651,0.527,1.749,1.285L-9.308,144.032L-9.308,144.032z"/>
				</g>
				<g>
					<path fill="#0F375C" d="M7.812,143.019c0.098,0.758-0.531,1.42-1.395,1.471l-11.025,0.653
						c-0.865,0.051-1.651-0.527-1.748-1.285l-0.355-2.765c-0.098-0.757,0.53-1.42,1.396-1.471l11.024-0.653
						c0.864-0.051,1.651,0.527,1.749,1.285L7.812,143.019z"/>
				</g>
				<g>
					<path fill="#0F375C" d="M24.932,142.005c0.097,0.758-0.53,1.42-1.395,1.471l-11.024,0.653
						c-0.865,0.051-1.651-0.526-1.748-1.285l-0.355-2.764c-0.098-0.758,0.53-1.42,1.395-1.471l11.025-0.653
						c0.865-0.051,1.651,0.527,1.749,1.285L24.932,142.005z"/>
				</g>
				<g>
					<path fill="#0F375C" d="M42.052,140.992c0.098,0.758-0.53,1.42-1.395,1.471l-11.024,0.652
						c-0.865,0.051-1.651-0.526-1.749-1.285l-0.355-2.764c-0.097-0.758,0.53-1.42,1.395-1.471l11.025-0.653
						c0.864-0.05,1.65,0.528,1.748,1.286L42.052,140.992z"/>
				</g>
				<g>
					<path fill="#0F375C" d="M59.172,139.978c0.098,0.758-0.53,1.42-1.395,1.471l-11.024,0.652
						c-0.865,0.051-1.651-0.526-1.749-1.285l-0.354-2.764c-0.098-0.758,0.53-1.42,1.396-1.472l11.023-0.652
						c0.865-0.051,1.651,0.528,1.749,1.286L59.172,139.978z"/>
				</g>
				<g>
					<path fill="#0F375C" d="M76.292,138.964c0.098,0.759-0.53,1.42-1.395,1.472l-11.026,0.653
						c-0.864,0.051-1.651-0.527-1.749-1.285l-0.354-2.765c-0.097-0.758,0.53-1.42,1.395-1.471l11.025-0.653
						c0.865-0.051,1.651,0.527,1.749,1.286L76.292,138.964z"/>
				</g>
				<g>
					<path fill="#0F375C" d="M93.412,137.951c0.097,0.759-0.53,1.42-1.395,1.471l-11.024,0.653
						c-0.864,0.051-1.651-0.527-1.749-1.286l-0.355-2.764c-0.097-0.757,0.531-1.42,1.396-1.471l11.025-0.652
						c0.864-0.051,1.65,0.527,1.748,1.285L93.412,137.951z"/>
				</g>
				<g>
					<path fill="#0F375C" d="M110.532,136.938c0.098,0.759-0.53,1.421-1.394,1.472l-11.025,0.652
						c-0.864,0.051-1.651-0.526-1.749-1.285l-0.355-2.764c-0.097-0.758,0.531-1.421,1.395-1.472l11.024-0.652
						c0.864-0.052,1.652,0.527,1.749,1.285L110.532,136.938z"/>
				</g>
				<g>
					<path fill="#0F375C" d="M127.653,135.925c0.098,0.758-0.531,1.419-1.395,1.471l-11.025,0.653
						c-0.864,0.051-1.651-0.526-1.749-1.285l-0.354-2.764c-0.098-0.758,0.531-1.42,1.395-1.471l11.025-0.653
						c0.864-0.051,1.651,0.527,1.749,1.285L127.653,135.925z"/>
				</g>
				<g>
					<path fill="#0F375C" d="M144.772,134.911c0.098,0.759-0.531,1.42-1.395,1.471l-11.025,0.653
						c-0.865,0.051-1.652-0.527-1.748-1.285l-0.355-2.765c-0.097-0.757,0.531-1.42,1.396-1.472l11.024-0.652
						c0.864-0.052,1.651,0.527,1.749,1.285L144.772,134.911z"/>
				</g>
				<g>
					<path fill="#0F375C" d="M161.894,133.897c0.098,0.759-0.531,1.42-1.395,1.471l-11.025,0.653
						c-0.865,0.051-1.651-0.527-1.748-1.285l-0.356-2.765c-0.097-0.757,0.531-1.419,1.395-1.47l11.025-0.653
						c0.864-0.051,1.651,0.527,1.749,1.285L161.894,133.897z"/>
				</g>
				<g>
					<path fill="#0F375C" d="M179.014,132.884c0.097,0.759-0.53,1.419-1.395,1.471l-11.025,0.653
						c-0.865,0.051-1.651-0.527-1.748-1.285l-0.355-2.765c-0.097-0.757,0.53-1.42,1.396-1.471l11.024-0.653
						c0.865-0.051,1.65,0.528,1.749,1.286L179.014,132.884z"/>
				</g>
				<g>
					<path fill="#0F375C" d="M-41.821,159.519c0.097,0.758-0.531,1.42-1.395,1.471l-11.025,0.653
						c-0.865,0.051-1.652-0.527-1.749-1.285l-0.886-6.906c-0.098-0.758,0.53-1.42,1.395-1.471l11.025-0.653
						c0.865-0.051,1.651,0.526,1.749,1.285L-41.821,159.519z"/>
				</g>
				<g>
					<path fill="#0F375C" d="M-24.702,158.505c0.098,0.758-0.53,1.42-1.394,1.471l-11.025,0.653
						c-0.864,0.051-1.651-0.528-1.749-1.285l-0.886-6.907c-0.098-0.758,0.53-1.419,1.395-1.471l11.026-0.653
						c0.864-0.051,1.65,0.527,1.748,1.285L-24.702,158.505z"/>
				</g>
				<g>
					<path fill="#0F375C" d="M-7.581,157.492c0.097,0.759-0.53,1.42-1.395,1.471l-11.026,0.653
						c-0.864,0.052-1.651-0.526-1.749-1.284l-0.886-6.907c-0.098-0.759,0.53-1.42,1.395-1.471l11.025-0.653
						c0.864-0.051,1.652,0.527,1.749,1.285L-7.581,157.492L-7.581,157.492z"/>
				</g>
				<g>
					<path fill="#0F375C" d="M9.539,156.479c0.098,0.758-0.53,1.419-1.395,1.471l-11.025,0.652
						c-0.865,0.052-1.651-0.526-1.749-1.285l-0.886-6.906c-0.098-0.759,0.53-1.42,1.395-1.471l11.025-0.653
						c0.864-0.051,1.651,0.527,1.749,1.285L9.539,156.479z"/>
				</g>
				<g>
					<path fill="#0F375C" d="M26.659,155.465c0.098,0.758-0.53,1.419-1.395,1.471l-11.024,0.652
						c-0.865,0.052-1.651-0.526-1.749-1.285l-0.885-6.906c-0.098-0.758,0.53-1.42,1.395-1.471l11.024-0.652
						c0.865-0.052,1.652,0.526,1.748,1.285L26.659,155.465z"/>
				</g>
				<g>
					<path fill="#0F375C" d="M43.779,154.452c0.097,0.758-0.53,1.419-1.395,1.471l-11.024,0.652
						c-0.865,0.051-1.651-0.527-1.749-1.286l-0.886-6.906c-0.098-0.758,0.53-1.42,1.395-1.471l11.024-0.652
						c0.865-0.052,1.651,0.526,1.749,1.285L43.779,154.452z"/>
				</g>
				<g>
					<path fill="#0F375C" d="M60.899,153.438c0.098,0.759-0.53,1.421-1.394,1.472l-11.024,0.653
						c-0.865,0.051-1.651-0.527-1.749-1.285l-0.886-6.906c-0.098-0.758,0.53-1.42,1.394-1.472l11.025-0.652
						c0.865-0.052,1.651,0.526,1.749,1.285L60.899,153.438z"/>
				</g>
				<g>
					<path fill="#0F375C" d="M78.02,152.424c0.097,0.758-0.53,1.42-1.395,1.472L65.6,154.548c-0.864,0.051-1.652-0.527-1.749-1.285
						l-0.886-6.906c-0.097-0.759,0.531-1.42,1.395-1.472l11.025-0.652c0.865-0.052,1.652,0.527,1.749,1.285L78.02,152.424z"/>
				</g>
				<g>
					<path fill="#0F375C" d="M95.139,151.411c0.098,0.759-0.531,1.42-1.395,1.472l-11.024,0.653
						c-0.864,0.051-1.651-0.527-1.748-1.286l-0.886-6.905c-0.098-0.759,0.53-1.42,1.394-1.472l11.025-0.652
						c0.864-0.051,1.651,0.526,1.747,1.285L95.139,151.411z"/>
				</g>
				<g>
					<path fill="#0F375C" d="M112.26,150.397c0.097,0.758-0.53,1.42-1.394,1.471l-11.026,0.653
						c-0.864,0.051-1.651-0.527-1.749-1.285l-0.885-6.906c-0.098-0.759,0.531-1.42,1.395-1.472l11.024-0.652
						c0.864-0.051,1.652,0.527,1.749,1.285L112.26,150.397z"/>
				</g>
				<g>
					<path fill="#0F375C" d="M129.38,149.384c0.097,0.758-0.531,1.42-1.395,1.471l-11.025,0.653
						c-0.864,0.052-1.651-0.526-1.749-1.285l-0.885-6.906c-0.098-0.758,0.53-1.419,1.395-1.471l11.024-0.653
						c0.864-0.051,1.652,0.526,1.749,1.285L129.38,149.384z"/>
				</g>
				<g>
					<path fill="#0F375C" d="M146.5,148.371c0.097,0.758-0.53,1.42-1.394,1.471l-11.025,0.652c-0.865,0.051-1.651-0.526-1.749-1.286
						l-0.885-6.906c-0.098-0.758,0.529-1.42,1.394-1.471l11.026-0.652c0.864-0.051,1.651,0.526,1.748,1.285L146.5,148.371z"/>
				</g>
				<g>
					<path fill="#0F375C" d="M180.74,146.344c0.098,0.759-0.53,1.42-1.395,1.471l-28.144,1.666
						c-0.865,0.051-1.651-0.527-1.749-1.285l-0.887-6.906c-0.097-0.759,0.53-1.419,1.395-1.471l28.145-1.666
						c0.865-0.051,1.651,0.527,1.749,1.285L180.74,146.344z"/>
				</g>
				<g>
					<path fill="#0F375C" d="M-24.976,171.735c0.098,0.758-0.53,1.42-1.395,1.471l-26.188,1.551
						c-0.864,0.051-1.65-0.527-1.748-1.285l-0.885-6.907c-0.098-0.757,0.53-1.42,1.394-1.471l26.188-1.55
						c0.865-0.052,1.651,0.527,1.749,1.284L-24.976,171.735z"/>
				</g>
				<g>
					<path fill="#0F375C" d="M-5.898,170.606c0.097,0.757-0.53,1.42-1.395,1.471l-11.026,0.653
						c-0.864,0.051-1.651-0.527-1.748-1.285l-0.886-6.907c-0.098-0.758,0.53-1.419,1.395-1.471l11.025-0.653
						c0.864-0.05,1.651,0.528,1.748,1.286L-5.898,170.606L-5.898,170.606z"/>
				</g>
				<g>
					<path fill="#0F375C" d="M11.221,169.593c0.098,0.757-0.53,1.419-1.394,1.47l-11.025,0.653
						c-0.865,0.051-1.651-0.528-1.749-1.285l-0.885-6.907c-0.098-0.757,0.529-1.419,1.394-1.471L8.587,161.4
						c0.864-0.051,1.651,0.527,1.748,1.285L11.221,169.593z"/>
				</g>
				<g>
					<path fill="#0F375C" d="M28.342,168.579c0.097,0.758-0.53,1.42-1.395,1.471l-11.024,0.653
						c-0.865,0.051-1.652-0.528-1.749-1.286l-0.886-6.907c-0.097-0.758,0.53-1.42,1.395-1.471l11.024-0.653
						c0.864-0.051,1.651,0.527,1.749,1.285L28.342,168.579z"/>
				</g>
				<g>
					<path fill="#0F375C" d="M45.461,167.565c0.097,0.757-0.53,1.42-1.395,1.471l-11.025,0.652
						c-0.864,0.051-1.651-0.527-1.749-1.285l-0.885-6.907c-0.098-0.758,0.53-1.42,1.395-1.471l11.024-0.652
						c0.865-0.052,1.652,0.527,1.748,1.285L45.461,167.565z"/>
				</g>
				<g>
					<path fill="#0F375C" d="M62.582,166.552c0.098,0.757-0.529,1.42-1.394,1.472l-11.025,0.652
						c-0.865,0.051-1.651-0.527-1.749-1.285l-0.885-6.907c-0.098-0.758,0.529-1.42,1.394-1.471l11.024-0.653
						c0.865-0.051,1.651,0.527,1.749,1.286L62.582,166.552z"/>
				</g>
				<g>
					<path fill="#0F375C" d="M79.702,165.538c0.098,0.758-0.53,1.42-1.395,1.472l-11.025,0.652
						c-0.864,0.051-1.652-0.527-1.749-1.285l-0.886-6.907c-0.097-0.757,0.531-1.42,1.395-1.471l11.025-0.653
						c0.865-0.051,1.651,0.527,1.749,1.285L79.702,165.538z"/>
				</g>
				<g>
					<path fill="#0F375C" d="M96.822,164.525c0.097,0.757-0.531,1.419-1.395,1.472l-11.024,0.652
						c-0.864,0.051-1.652-0.528-1.75-1.286l-0.886-6.905c-0.098-0.758,0.531-1.42,1.395-1.472l11.024-0.653
						c0.864-0.052,1.653,0.527,1.749,1.285L96.822,164.525z"/>
				</g>
				<g>
					<path fill="#0F375C" d="M113.942,163.511c0.097,0.758-0.531,1.421-1.395,1.472l-11.025,0.652
						c-0.865,0.052-1.651-0.527-1.748-1.284l-0.886-6.907c-0.098-0.758,0.53-1.42,1.395-1.472l11.025-0.653
						c0.864-0.051,1.651,0.528,1.748,1.286L113.942,163.511z"/>
				</g>
				<g>
					<path fill="#0F375C" d="M131.063,162.497c0.097,0.759-0.53,1.421-1.395,1.472l-11.025,0.653
						c-0.864,0.051-1.651-0.527-1.749-1.286l-0.885-6.906c-0.098-0.758,0.53-1.42,1.394-1.472l11.025-0.652
						c0.864-0.051,1.652,0.528,1.749,1.285L131.063,162.497z"/>
				</g>
				<g>
					<path fill="#0F375C" d="M148.182,161.484c0.098,0.758-0.53,1.421-1.394,1.471l-11.026,0.654
						c-0.864,0.05-1.65-0.528-1.748-1.286l-0.886-6.907c-0.097-0.758,0.53-1.419,1.395-1.472l11.025-0.652
						c0.864-0.052,1.651,0.527,1.749,1.285L148.182,161.484z"/>
				</g>
				<g>
					<path fill="#0F375C" d="M-32.75,185.408c0.097,0.758-0.531,1.42-1.395,1.471l-16.731,0.991
						c-0.865,0.051-1.651-0.527-1.749-1.285l-0.886-6.907c-0.097-0.758,0.531-1.419,1.395-1.471l16.731-0.991
						c0.864-0.05,1.652,0.527,1.749,1.286L-32.75,185.408z"/>
				</g>
				<g>
					<path fill="#0F375C" d="M-15.433,184.384c0.097,0.758-0.53,1.419-1.395,1.471l-11.024,0.653
						c-0.864,0.051-1.652-0.527-1.749-1.285l-0.886-6.907c-0.098-0.758,0.53-1.42,1.395-1.471l11.024-0.653
						c0.865-0.051,1.652,0.527,1.749,1.285L-15.433,184.384z"/>
				</g>
				<g>
					<path fill="#0F375C" d="M1.687,183.371c0.098,0.758-0.53,1.419-1.394,1.471l-11.025,0.652
						c-0.865,0.052-1.651-0.527-1.748-1.284l-0.886-6.907c-0.098-0.758,0.53-1.42,1.394-1.471l11.025-0.653
						c0.864-0.051,1.651,0.527,1.749,1.285L1.687,183.371z"/>
				</g>
				<g>
					<path fill="#0F375C" d="M18.807,182.357c0.098,0.758-0.531,1.419-1.395,1.471L6.388,184.48
						c-0.864,0.051-1.652-0.527-1.749-1.285l-0.886-6.907c-0.097-0.757,0.531-1.42,1.395-1.471l11.025-0.653
						c0.864-0.052,1.651,0.527,1.749,1.285L18.807,182.357z"/>
				</g>
				<g>
					<path fill="#0F375C" d="M35.928,181.343c0.097,0.757-0.531,1.419-1.395,1.471l-11.025,0.653
						c-0.864,0.051-1.651-0.528-1.749-1.285l-0.886-6.907c-0.097-0.757,0.53-1.42,1.395-1.471l11.025-0.653
						c0.865-0.051,1.652,0.527,1.749,1.285L35.928,181.343z"/>
				</g>
				<g>
					<path fill="#0F375C" d="M53.048,180.33c0.098,0.758-0.53,1.419-1.394,1.471l-11.026,0.652c-0.864,0.052-1.65-0.527-1.748-1.284
						l-0.887-6.907c-0.097-0.758,0.531-1.42,1.395-1.471l11.025-0.653c0.864-0.051,1.651,0.527,1.749,1.285L53.048,180.33z"/>
				</g>
				<g>
					<path fill="#0F375C" d="M70.168,179.316c0.098,0.757-0.53,1.419-1.395,1.471l-11.025,0.653
						c-0.865,0.052-1.652-0.527-1.749-1.285l-0.887-6.907c-0.097-0.757,0.53-1.42,1.395-1.471l11.025-0.652
						c0.864-0.052,1.651,0.526,1.749,1.284L70.168,179.316z"/>
				</g>
				<g>
					<path fill="#0F375C" d="M87.288,178.302c0.097,0.758-0.53,1.42-1.395,1.472l-11.024,0.652
						c-0.865,0.052-1.652-0.527-1.749-1.284l-0.886-6.908c-0.097-0.758,0.53-1.42,1.394-1.471l11.025-0.652
						c0.865-0.052,1.65,0.527,1.749,1.285L87.288,178.302z"/>
				</g>
				<g>
					<path fill="#0F375C" d="M104.408,177.289c0.098,0.758-0.53,1.42-1.395,1.471l-11.024,0.652
						c-0.864,0.052-1.652-0.527-1.748-1.285l-0.887-6.907c-0.097-0.757,0.53-1.419,1.395-1.471l11.024-0.652
						c0.866-0.052,1.651,0.527,1.749,1.285L104.408,177.289z"/>
				</g>
				<g>
					<path fill="#0F375C" d="M121.529,176.276c0.097,0.757-0.53,1.42-1.395,1.471l-11.024,0.653
						c-0.864,0.051-1.652-0.528-1.748-1.286l-0.887-6.907c-0.097-0.757,0.531-1.419,1.395-1.471l11.024-0.652
						c0.866-0.052,1.653,0.528,1.75,1.285L121.529,176.276z"/>
				</g>
				<g>
					<path fill="#0F375C" d="M138.648,175.263c0.097,0.758-0.531,1.42-1.395,1.471l-11.025,0.652
						c-0.864,0.052-1.651-0.527-1.748-1.285l-0.886-6.906c-0.098-0.758,0.531-1.42,1.395-1.471l11.025-0.653
						c0.864-0.051,1.651,0.528,1.748,1.285L138.648,175.263z"/>
				</g>
				<g>
					<path fill="#0F375C" d="M155.769,174.249c0.097,0.758-0.531,1.42-1.395,1.471l-11.025,0.652
						c-0.864,0.051-1.652-0.527-1.749-1.286l-0.886-6.906c-0.097-0.758,0.53-1.42,1.394-1.472l11.026-0.653
						c0.864-0.051,1.65,0.527,1.749,1.285L155.769,174.249z"/>
				</g>
				<g>
					<path fill="#0F375C" d="M168.763,151.918c-0.865,0.051-2.28,0.135-3.144,0.186l-11.025,0.653
						c-0.864,0.051-1.493,0.713-1.395,1.471l0.885,6.907c0.098,0.758,0.885,1.336,1.749,1.286l0.989-0.059
						c0.864-0.051,1.651,0.528,1.748,1.285l1.329,10.357c0.098,0.758,0.885,1.337,1.749,1.285l6.893-0.408
						c0.864-0.051,2.279-0.135,3.143-0.186l0.99-0.059c0.864-0.051,2.278-0.135,3.143-0.186l6.892-0.408
						c0.865-0.052,1.491-0.713,1.394-1.472l-1.329-10.357c-0.097-0.758-0.251-1.961-0.343-2.673
						c-0.092-0.712-0.247-1.914-0.343-2.671l-0.554-4.32c-0.097-0.757-0.884-1.336-1.748-1.285L168.763,151.918L168.763,151.918z"/>
				</g>
				<g>
					<path fill="#0F375C" d="M-36.774,198.859c0.097,0.758-0.53,1.419-1.395,1.471l-11.025,0.652
						c-0.864,0.052-1.651-0.526-1.749-1.285l-0.885-6.905c-0.098-0.757,0.53-1.42,1.395-1.472l11.025-0.652
						c0.864-0.051,1.65,0.528,1.748,1.285L-36.774,198.859z"/>
				</g>
				<g>
					<path fill="#0F375C" d="M-19.654,197.846c0.098,0.758-0.53,1.42-1.394,1.471l-11.026,0.653
						c-0.864,0.051-1.651-0.526-1.748-1.286l-0.886-6.905c-0.097-0.758,0.53-1.42,1.395-1.472l11.025-0.652
						c0.864-0.051,1.651,0.528,1.749,1.285L-19.654,197.846z"/>
				</g>
				<g>
					<path fill="#0F375C" d="M-2.533,196.832c0.098,0.758-0.531,1.42-1.395,1.471l-11.026,0.653
						c-0.864,0.051-1.651-0.526-1.749-1.285l-0.886-6.905c-0.097-0.758,0.531-1.419,1.396-1.471l11.024-0.652
						c0.864-0.051,1.651,0.527,1.749,1.285L-2.533,196.832L-2.533,196.832z"/>
				</g>
				<g>
					<path fill="#0F375C" d="M14.587,195.818c0.097,0.758-0.531,1.42-1.395,1.471l-11.025,0.653
						c-0.865,0.051-1.651-0.527-1.749-1.285l-0.886-6.905c-0.097-0.757,0.531-1.419,1.396-1.471l11.025-0.653
						c0.864-0.051,1.65,0.527,1.748,1.285L14.587,195.818z"/>
				</g>
				<g>
					<path fill="#0F375C" d="M31.706,194.805c0.098,0.758-0.529,1.42-1.394,1.471l-11.025,0.653
						c-0.865,0.051-1.651-0.527-1.749-1.285l-0.886-6.905c-0.097-0.758,0.531-1.42,1.396-1.471l11.025-0.653
						c0.864-0.051,1.65,0.527,1.748,1.286L31.706,194.805z"/>
				</g>
				<g>
					<path fill="#0F375C" d="M48.827,193.792c0.097,0.758-0.53,1.42-1.395,1.471l-11.024,0.653
						c-0.864,0.051-1.651-0.526-1.749-1.285l-0.886-6.905c-0.097-0.758,0.53-1.42,1.395-1.471l11.024-0.653
						c0.865-0.051,1.651,0.527,1.749,1.285L48.827,193.792z"/>
				</g>
				<g>
					<path fill="#0F375C" d="M65.947,192.778c0.097,0.758-0.53,1.42-1.395,1.471l-11.024,0.653c-0.866,0.051-1.652-0.526-1.75-1.285
						l-0.886-6.905c-0.097-0.758,0.531-1.42,1.395-1.471l11.024-0.653c0.865-0.051,1.651,0.528,1.749,1.286L65.947,192.778z"/>
				</g>
				<g>
					<path fill="#0F375C" d="M83.066,191.765c0.098,0.758-0.53,1.419-1.394,1.472l-11.025,0.652
						c-0.863,0.051-1.652-0.526-1.749-1.285l-0.886-6.905c-0.098-0.757,0.531-1.42,1.396-1.471l11.024-0.653
						c0.864-0.051,1.651,0.527,1.748,1.285L83.066,191.765z"/>
				</g>
				<g>
					<path fill="#0F375C" d="M100.187,190.751c0.098,0.758-0.531,1.42-1.395,1.471l-11.025,0.653
						c-0.864,0.051-1.651-0.527-1.748-1.285l-0.886-6.905c-0.098-0.758,0.53-1.421,1.394-1.472l11.024-0.652
						c0.864-0.051,1.651,0.527,1.749,1.285L100.187,190.751z"/>
				</g>
				<g>
					<path fill="#0F375C" d="M117.308,189.737c0.097,0.759-0.531,1.42-1.395,1.472l-11.026,0.652
						c-0.865,0.051-1.65-0.526-1.749-1.285l-0.886-6.905c-0.096-0.758,0.531-1.421,1.396-1.471l11.025-0.653
						c0.864-0.051,1.651,0.527,1.749,1.285L117.308,189.737z"/>
				</g>
				<g>
					<path fill="#0F375C" d="M134.427,188.724c0.098,0.759-0.53,1.42-1.394,1.471l-11.026,0.653
						c-0.864,0.051-1.651-0.527-1.749-1.285l-0.886-6.905c-0.097-0.758,0.531-1.42,1.396-1.471l11.025-0.653
						c0.864-0.051,1.65,0.527,1.748,1.285L134.427,188.724z"/>
				</g>
				<g>
					<path fill="#0F375C" d="M151.547,187.71c0.098,0.758-0.53,1.421-1.394,1.472l-11.026,0.653
						c-0.864,0.051-1.65-0.527-1.749-1.285l-0.885-6.904c-0.097-0.758,0.53-1.421,1.395-1.472l11.025-0.652
						c0.864-0.052,1.651,0.527,1.748,1.285L151.547,187.71z"/>
				</g>
				<g>
					<path fill="#0F375C" d="M185.788,185.684c0.097,0.758-0.53,1.42-1.395,1.471l-28.144,1.666
						c-0.865,0.052-1.651-0.526-1.749-1.284l-0.886-6.905c-0.097-0.757,0.531-1.419,1.396-1.471l28.144-1.667
						c0.865-0.051,1.651,0.527,1.749,1.285L185.788,185.684z"/>
				</g>
				<g>
					<path fill="#0F375C" d="M-35.091,211.973c0.097,0.759-0.531,1.42-1.395,1.471l-11.025,0.653
						c-0.864,0.051-1.651-0.526-1.748-1.285l-0.887-6.906c-0.097-0.758,0.531-1.419,1.396-1.472l11.024-0.651
						c0.865-0.052,1.652,0.526,1.749,1.285L-35.091,211.973z"/>
				</g>
				<g>
					<path fill="#0F375C" d="M-17.972,210.959c0.098,0.759-0.53,1.42-1.394,1.471l-11.025,0.653
						c-0.865,0.052-1.651-0.527-1.749-1.286l-0.886-6.906c-0.097-0.758,0.531-1.419,1.396-1.472l11.025-0.651
						c0.864-0.052,1.65,0.526,1.748,1.284L-17.972,210.959z"/>
				</g>
				<g>
					<path fill="#0F375C" d="M-0.851,209.945c0.098,0.759-0.531,1.421-1.395,1.471l-11.026,0.654
						c-0.865,0.051-1.651-0.527-1.748-1.286l-0.887-6.905c-0.097-0.759,0.531-1.42,1.395-1.472l11.025-0.652
						c0.864-0.052,1.652,0.526,1.749,1.285L-0.851,209.945L-0.851,209.945z"/>
				</g>
				<g>
					<path fill="#0F375C" d="M16.27,208.933c0.097,0.759-0.531,1.42-1.395,1.471l-11.026,0.653c-0.865,0.051-1.65-0.527-1.748-1.285
						l-0.886-6.906c-0.097-0.758,0.53-1.419,1.395-1.471l11.025-0.653c0.864-0.051,1.651,0.527,1.749,1.285L16.27,208.933z"/>
				</g>
				<g>
					<path fill="#0F375C" d="M33.897,199.541c-0.863,0.051-1.837,0.109-2.162,0.128c-0.325,0.019-1.297,0.077-2.162,0.127
						l-9.843,0.583c-0.865,0.051-1.492,0.712-1.396,1.471l0.886,6.907c0.098,0.758,0.884,1.336,1.749,1.285l9.843-0.583
						c0.865-0.052,1.838-0.108,2.163-0.128c0.324-0.019,1.297-0.077,2.161-0.128l64.158-3.797c0.864-0.051,1.492-0.713,1.396-1.472
						l-0.887-6.906c-0.098-0.759-0.885-1.336-1.749-1.286L33.897,199.541z"/>
				</g>
				<g>
					<path fill="#0F375C" d="M118.991,202.852c0.097,0.758-0.531,1.42-1.395,1.472l-11.026,0.652
						c-0.864,0.051-1.651-0.527-1.748-1.285l-0.886-6.906c-0.097-0.758,0.531-1.42,1.395-1.471l11.024-0.653
						c0.864-0.051,1.652,0.526,1.749,1.285L118.991,202.852z"/>
				</g>
				<g>
					<path fill="#0F375C" d="M136.11,201.838c0.097,0.758-0.531,1.419-1.395,1.471l-11.026,0.652
						c-0.864,0.052-1.65-0.526-1.748-1.284l-0.886-6.906c-0.097-0.758,0.531-1.42,1.396-1.471l11.024-0.653
						c0.864-0.051,1.651,0.527,1.748,1.285L136.11,201.838z"/>
				</g>
				<g>
					<path fill="#0F375C" d="M153.229,200.825c0.098,0.758-0.53,1.419-1.394,1.472l-11.026,0.652
						c-0.865,0.052-1.651-0.527-1.749-1.285l-0.886-6.906c-0.098-0.759,0.531-1.42,1.395-1.472l11.025-0.652
						c0.864-0.052,1.651,0.526,1.748,1.285L153.229,200.825z"/>
				</g>
				<g>
					<path fill="#0F375C" d="M169.589,193.871c0.098,0.759-0.531,1.419-1.395,1.471l-11.025,0.652
						c-0.865,0.051-1.651-0.527-1.749-1.285l-0.125-0.965c-0.096-0.759,0.531-1.42,1.396-1.472l11.025-0.652
						c0.864-0.051,1.651,0.527,1.749,1.285L169.589,193.871z"/>
				</g>
				<g>
					<path fill="#0F375C" d="M170.351,199.812c0.098,0.758-0.53,1.42-1.395,1.471l-11.025,0.653
						c-0.865,0.051-1.65-0.527-1.749-1.285l-0.124-0.965c-0.097-0.758,0.53-1.419,1.394-1.471l11.026-0.653
						c0.864-0.051,1.651,0.527,1.749,1.285L170.351,199.812z"/>
				</g>
				<g>
					<path fill="#0F375C" d="M187.47,198.798c0.098,0.759-0.53,1.42-1.395,1.471l-11.024,0.652
						c-0.865,0.052-1.651-0.527-1.748-1.285l-0.887-6.906c-0.096-0.759,0.53-1.42,1.396-1.471l11.024-0.652
						c0.865-0.052,1.651,0.527,1.749,1.285L187.47,198.798z"/>
				</g>
			</g>
			<polygon fill="#B7E1DD" points="76.406,253.742 117.475,251.311 114.049,224.609 29.629,229.607 33.055,256.309 74.122,253.877 
							"/>
			<path fill="#0F375C" d="M33.312,258.311l0.295,2.303c0.339,2.645,1.83,5.223,4.392,7.104c2.561,1.883,5.706,2.714,8.722,2.536
				l29.281-1.734l-1.622-12.64L33.312,258.311z"/>
			<path fill="#0F375C" d="M78.285,268.384l29.282-1.733c3.017-0.179,5.904-1.366,7.945-3.522c2.042-2.153,2.855-4.868,2.516-7.511
				l-0.296-2.304l-41.068,2.431L78.285,268.384z"/>
			<g>
				<polygon fill="#FFFFFF" points="34.647,38.03 -26.677,102.712 -4.45,101.396 56.874,36.714 				"/>
				<polygon fill="#C9C9C9" points="72.137,35.811 10.813,100.493 70.824,96.94 132.148,32.258 				"/>
			</g>
		</g>
		<g>
			<ellipse fill="#EEEBD5" cx="669.811" cy="270.491" rx="40.543" ry="35.155"/>
			<ellipse fill="#CECECE" cx="672.596" cy="271.163" rx="31.578" ry="27.382"/>
			<path fill="#FFFFFF" d="M710.18,267.479h-10.924c-1.723-12.781-14.244-22.702-29.445-22.702
				c-16.379,0-29.656,11.512-29.656,25.713c0,14.202,13.277,25.714,29.656,25.714c14.801,0,27.066-9.402,29.291-21.694h11.078
				c1.912,0,3.475-1.357,3.475-3.013v-1.005C713.654,268.834,712.092,267.479,710.18,267.479z"/>
			<ellipse fill="#AA7939" cx="669.811" cy="270.49" rx="23.012" ry="19.953"/>
			<path fill="#CECECE" d="M655.834,278.326c0-11.02,10.303-19.953,23.012-19.953c4.031,0,7.818,0.901,11.115,2.48
				c-3.92-6.149-11.475-10.316-20.15-10.316c-12.709,0-23.012,8.934-23.012,19.954c0,7.524,4.805,14.073,11.896,17.473
				C656.873,285.107,655.834,281.823,655.834,278.326z"/>
		</g>
		<g>
			<path fill="#FFFFFF" d="M482.244,58.221c1.67,1.447,1.67,3.816,0,5.265L458.91,83.719c-1.67,1.448-4.404,1.448-6.072,0
				l-43.229-37.483c-1.67-1.447-1.67-3.817,0-5.265l23.334-20.234c1.67-1.448,4.404-1.448,6.074,0L482.244,58.221z"/>
			<polygon fill="#B7E1DD" points="414.434,46.989 440.09,24.742 477.889,57.517 452.232,79.763 			"/>
			<path fill="#231F20" d="M425.33,33.001c0.607,0.526,0.555,1.429-0.113,2.007l-6.148,5.331c-0.668,0.58-1.709,0.624-2.314,0.099
				c-0.605-0.525-0.553-1.428,0.113-2.007l6.148-5.33C423.684,32.522,424.727,32.477,425.33,33.001z"/>
			<ellipse fill="#0F375C" cx="427.963" cy="30.719" rx="1.557" ry="1.349"/>
			<ellipse fill="#EEEBD5" cx="430.998" cy="28.087" rx="0.949" ry="0.823"/>
			<g>
				<ellipse fill="#EEEBD5" cx="467.693" cy="71.103" rx="2.469" ry="2.14"/>
				<path fill="#CECECE" d="M466.961,70.467c0.785-0.683,1.969-0.798,2.902-0.366c-0.113-0.182-0.246-0.358-0.424-0.511
					c-0.963-0.836-2.527-0.836-3.49,0c-0.965,0.835-0.965,2.191,0,3.027c0.178,0.154,0.379,0.27,0.588,0.366
					C466.039,72.174,466.174,71.149,466.961,70.467z"/>
				<path fill="#FF6A33" d="M469.742,72.879c-1.129,0.981-2.967,0.981-4.098,0.001c-1.129-0.98-1.129-2.574,0.002-3.554
					c1.129-0.98,2.967-0.98,4.096,0C470.875,70.305,470.875,71.9,469.742,72.879z M466.252,69.853c-0.795,0.689-0.795,1.811,0,2.5
					c0.795,0.69,2.09,0.69,2.885,0c0.795-0.689,0.795-1.811,0-2.5C468.342,69.164,467.047,69.164,466.252,69.853z"/>
			</g>
			<polygon fill="#C9C9C9" points="440.096,24.742 435.313,28.889 435.313,65.086 446.166,74.499 446.168,30.007 			"/>
			<polygon fill="#FFFFFF" points="450.584,33.835 450.582,78.327 452.238,79.763 454.414,77.876 454.414,37.158 			"/>
		</g>
		<g>
			<g>
				<path fill="#302D2D" d="M665.447,102.774c-8.793-3.135-10.23-8.101-10.361-8.319c-16.146-26.787-73.254-41.755-73.971-41.976
					c-0.551-0.172-0.813-0.673-0.623-1.135c0.189-0.464,0.775-0.706,1.311-0.542c2.961,0.914,72.664,22.638,86.477,51.339
					c0.217,0.454-0.029,0.974-0.553,1.163C667.467,103.4,665.689,102.861,665.447,102.774z"/>
			</g>
			<g>
				<path fill="#302D2D" d="M573.09,69.848c8.795,3.135,13.846,0.482,14.113,0.407c33.207-9.192,85.943,15,86.629,15.28
					c0.533,0.214,1.125,0.018,1.365-0.427c0.24-0.445,0.02-0.974-0.492-1.183c-2.846-1.157-70.014-28.229-103.113-16.253
					c-0.523,0.19-0.77,0.71-0.553,1.163C571.148,69.061,572.848,69.762,573.09,69.848z"/>
			</g>
			<path fill="#FF6A33" d="M621.934,61.547c0.133-3.397-1.119-6.406-4.912-7.759c-3.793-1.352-8.535-3.042-14.223-5.07
				c-5.689-2.029-16.637-2.326-20.242,5.279c-3.607,7.606-5.273,16.384,2.313,19.089c7.586,2.704,19.449,1.347,25.281-0.671
				C615.982,70.4,621.801,64.946,621.934,61.547z"/>
			<path fill="#FF6A33" d="M637.461,67.083c2.662-2.496,5.994-3.871,9.787-2.518c3.793,1.352,8.535,3.042,14.225,5.071
				c5.688,2.028,13.709,8.493,10.104,16.098c-3.607,7.606-9.543,14.863-17.129,12.158c-7.584-2.704-14.918-10.905-17.426-15.896
				C634.512,77.005,634.801,69.58,637.461,67.083z"/>
			<path fill="#302D2D" d="M662.25,67.991l-14.225-5.071c-3.84-1.37-7.783-0.578-11.207,2.208c-0.691-1.217-2.234-3.075-5.553-4.257
				c-3.234-1.154-5.795-0.821-7.291-0.391c-0.197-4.035-2.354-6.974-6.172-8.335l-14.225-5.071
				c-7.088-2.527-18.883-2.258-22.916,6.249c-5.203,10.973-3.955,18.776,3.426,21.408c8.367,2.983,20.951,1.369,26.822-0.662
				c5.551-1.918,12.068-7.244,12.967-11.641c0.713-0.317,3.127-1.152,6.609,0.088c3.73,1.33,4.656,3.606,4.814,4.091
				c-2.857,3.708-2.531,11.385-0.162,16.1c2.525,5.023,10.162,13.847,18.527,16.83c7.383,2.632,14.6-2.153,19.803-13.127
				C677.504,77.904,669.338,70.518,662.25,67.991z M610.15,72.416c-5.832,2.018-17.695,3.375-25.281,0.67
				c-7.586-2.705-5.92-11.482-2.313-19.088c3.605-7.604,14.553-7.308,20.242-5.28c5.688,2.028,10.43,3.719,14.223,5.071
				c3.793,1.353,5.045,4.361,4.912,7.759C621.801,64.945,615.982,70.4,610.15,72.416z M654.447,97.892
				c-7.584-2.705-14.916-10.906-17.426-15.897c-2.51-4.989-2.219-12.415,0.441-14.911c2.662-2.497,5.992-3.872,9.787-2.519
				c3.791,1.353,8.533,3.043,14.223,5.071c5.689,2.029,13.711,8.493,10.104,16.099C667.971,93.34,662.035,100.596,654.447,97.892z"
				/>
			<path fill="#FFFFFF" d="M621.934,61.547c0.133-3.397-1.119-6.406-4.912-7.759c-3.793-1.352-8.535-3.042-14.223-5.07
				c-2.096-0.747-4.902-1.258-7.795-1.226c-4.963,0.052-10.17,1.701-12.447,6.505c-3.607,7.606-5.273,16.384,2.311,19.088
				c7.586,2.705,19.451,1.348,25.283-0.67c0.004-0.002,0.012-0.004,0.018-0.007C615.994,70.389,621.801,64.941,621.934,61.547z"/>
			<path fill="#EEEBD5" d="M622.008,61.39c0.133-3.397-1.117-6.406-4.912-7.759c-3.793-1.352-8.533-3.042-14.223-5.071
				c-2.096-0.747-4.902-1.257-7.795-1.226c1.207,9.586,6.588,18.555,15.164,24.917C616.068,70.231,621.877,64.785,622.008,61.39z"/>
			<path fill="#FFFFFF" d="M667.045,72.723c-1.803-1.392-3.801-2.456-5.572-3.087c-5.689-2.028-10.432-3.718-14.223-5.071
				c-3.795-1.353-7.125,0.022-9.787,2.519c-2.586,2.424-2.922,9.494-0.641,14.47c0.066,0.148,0.127,0.299,0.199,0.44
				c2.508,4.992,9.842,13.192,17.426,15.897c7.588,2.705,13.523-4.552,17.129-12.158C674.059,80.497,671.029,75.803,667.045,72.723z
				"/>
			<path fill="#EEEBD5" d="M667.121,72.566c-1.803-1.394-3.801-2.456-5.574-3.087c-5.689-2.029-10.432-3.719-14.225-5.071
				c-3.791-1.353-7.123,0.022-9.785,2.519c-2.584,2.424-2.922,9.494-0.641,14.47C647.928,81.832,658.727,78.625,667.121,72.566z"/>
		</g>
		<g>
			<path fill="#C9C9C9" d="M169.501,325.688c2.319,5.362-2.122,6.878,1.754,17.334c3.794,10.236,8.491,14.125,15.139,13.427
				C185.179,344.54,174.414,331.212,169.501,325.688z"/>
			<path fill="#C9C9C9" d="M203.741,334.035c-1.478-3.988-3.765-8.215-6.559-12.042c-0.469,6.627-0.491,19.355,4.832,28.652
				C205.804,346.84,206.088,340.366,203.741,334.035z"/>
			<path fill="#231F20" d="M197.182,321.992c-5.963-8.171-11.798-15.055-21.958-12.856c-0.323,0.07-0.635,0.145-0.94,0.221
				c2.03,2.677,6.668,8.859,8.085,11.298c0.21,0.361,0.079,0.777-0.293,0.931c-0.041,0.017-0.082,0.029-0.125,0.039
				c-0.347,0.075-0.741-0.094-0.928-0.417c-1.408-2.423-6.331-8.964-8.199-11.425c-8.678,2.832-7.156,8.899-3.896,14.755
				c0.226,0.403,0.412,0.786,0.572,1.15c4.914,5.525,15.678,18.852,16.893,30.76c0.603-0.063,1.221-0.159,1.857-0.297
				c5.123-1.108,8.546-1.39,12.766-4.617c0.36-0.274,0.688-0.576,0.998-0.888C196.691,341.348,196.713,328.62,197.182,321.992z"/>
			<path fill="#EEEBD5" d="M181.953,321.625c0.043-0.01,0.084-0.022,0.124-0.04c0.373-0.154,0.503-0.569,0.293-0.931
				c-1.417-2.438-6.053-8.62-8.085-11.297c-0.518,0.131-0.999,0.275-1.459,0.425c1.869,2.461,6.791,9.002,8.199,11.426
				C181.211,321.531,181.606,321.701,181.953,321.625z"/>
			<path fill="#FF6A33" d="M179.171,314.883c0.797,1.134,0.905,2.351,0.236,2.706c-0.669,0.354-1.869-0.285-2.667-1.417
				c-0.799-1.134-0.905-2.353-0.237-2.706C177.173,313.11,178.373,313.749,179.171,314.883z"/>
		</g>
		<g>
			<g>
				<polygon fill="#FF6A33" points="48.551,331.649 67.451,336.04 66.125,340.331 47.226,335.939 				"/>
			</g>
			<g>
				<polygon fill="#FFFFFF" points="50.336,329.182 67.316,333.126 66.408,336.067 49.428,332.123 				"/>
			</g>
			<g>
				<polygon fill="#EEEBD5" points="56.136,317.72 69.354,320.791 65.661,332.741 52.443,329.67 				"/>
			</g>
			<g>
				<g>
					<polygon fill="#231F20" points="57.542,321.143 60.415,321.81 59.645,324.301 56.771,323.633 					"/>
				</g>
				<g>
					<polygon fill="#231F20" points="63.256,322.47 66.129,323.137 65.36,325.629 62.487,324.961 					"/>
				</g>
			</g>
			<g>
				<polygon fill="#231F20" points="59.534,327.82 60.157,327.965 59.128,331.278 58.506,331.133 				"/>
			</g>
			<g>
				<ellipse fill="#231F20" cx="59.848" cy="327.863" rx="0.595" ry="0.515"/>
			</g>
		</g>
	</g>
</g>
</svg>
